<?xml version="1.0" encoding="UTF-8"?>
<!DOCTYPE svg PUBLIC "-//W3C//DTD SVG 1.1//EN" "http://www.w3.org/Graphics/SVG/1.1/DTD/svg11.dtd">
<!-- Creator: CorelDRAW X7 -->
<svg xmlns="http://www.w3.org/2000/svg" xml:space="preserve" width="102.123mm" height="102.123mm" version="1.1" style="shape-rendering:geometricPrecision; text-rendering:geometricPrecision; image-rendering:optimizeQuality; fill-rule:evenodd; clip-rule:evenodd"
viewBox="0 0 10212 10212"
 xmlns:xlink="http://www.w3.org/1999/xlink">
 <defs>
  <style type="text/css">
   <![CDATA[
    .fil1 {fill:#FAC9A4}
    .fil3 {fill:#613C1C}
    .fil2 {fill:#D7AC8C}
    .fil0 {fill:#B5D6A4}
    .fil5 {fill:#127A88}
    .fil4 {fill:#224A98}
   ]]>
  </style>
 </defs>
 <g id="Layer_x0020_1">
  <metadata id="CorelCorpID_0Corel-Layer"/>
  <g id="_2001301879520">
   <path class="fil0" d="M10212 5106c0,2820 -2286,5106 -5106,5106 -2820,0 -5106,-2286 -5106,-5106 0,-2820 2286,-5106 5106,-5106 2820,0 5106,2286 5106,5106z"/>
   <path class="fil1" d="M6156 7292c-46,203 -96,659 -16,875 30,80 1575,673 1759,746 144,57 281,115 405,174 -875,704 -1987,1125 -3198,1125 -1210,0 -2322,-421 -3198,-1125 124,-59 261,-117 406,-174 183,-73 1729,-666 1758,-746 80,-216 30,-672 -15,-875 1254,-663 835,-668 2099,0z"/>
   <path class="fil2" d="M6548 8371c0,0 -429,609 -765,646 -502,55 -621,-112 -953,-441 -277,-274 -613,-639 -721,-893 0,0 -58,-498 -95,-583 -37,-85 933,-445 933,-445l980 -18 229 655c0,0 -124,613 -16,875l408 204z"/>
   <path class="fil1" d="M3446 5977c0,0 -298,91 -513,-160 -214,-252 -605,-1424 309,-1261l204 1421z"/>
   <path class="fil1" d="M6718 5977c0,0 298,91 512,-160 215,-252 606,-1424 -308,-1261l-204 1421z"/>
   <path class="fil1" d="M6117 7493c-899,967 -1169,967 -2067,0 -598,-643 -701,-1317 -741,-2106 -37,-715 -235,-1699 157,-2167 616,-735 2619,-735 3235,0 392,468 194,1452 157,2167 -41,789 -144,1463 -741,2106z"/>
   <path class="fil3" d="M3149 5290l153 0c0,0 -255,-1931 481,-2327 737,-397 2935,267 3134,817l-53 1506 164 0 184 -732c0,0 144,-1217 108,-1332 -35,-115 -26,-1010 -2020,-1506 0,0 -1542,-328 -2091,797 0,0 -78,203 -51,468 0,0 -357,46 -330,666 26,621 321,1643 321,1643z"/>
   <path class="fil4" d="M6481 8337c473,207 1288,524 1418,576 144,57 281,115 405,174 -875,704 -1987,1125 -3198,1125 -1210,0 -2322,-421 -3198,-1125 124,-59 261,-117 406,-174 131,-53 957,-370 1429,-576 242,566 765,959 1369,959 604,0 1126,-394 1369,-959z"/>
   <path class="fil5" d="M6616 8395c-247,631 -844,1047 -1504,1047 -662,0 -1259,-415 -1505,-1047l136 -58c272,536 727,954 1376,954 650,0 1123,-422 1362,-954l135 58z"/>
  </g>
 </g>
</svg>
