<?xml version="1.0" encoding="UTF-8"?>
<!DOCTYPE svg PUBLIC "-//W3C//DTD SVG 1.1//EN" "http://www.w3.org/Graphics/SVG/1.1/DTD/svg11.dtd">
<!-- Creator: CorelDRAW X7 -->
<svg xmlns="http://www.w3.org/2000/svg" xml:space="preserve" width="210mm" height="297mm" version="1.1" style="shape-rendering:geometricPrecision; text-rendering:geometricPrecision; image-rendering:optimizeQuality; fill-rule:evenodd; clip-rule:evenodd"
viewBox="0 0 21000 29700"
 xmlns:xlink="http://www.w3.org/1999/xlink">
 <defs>
  <style type="text/css">
   <![CDATA[
    .fil2 {fill:#2C2D2C}
    .fil5 {fill:#BC9674}
    .fil4 {fill:#D5AD85}
    .fil1 {fill:#DAB388}
    .fil0 {fill:#E4BE8F}
    .fil3 {fill:#F2C699}
   ]]>
  </style>
 </defs>
 <g id="Layer_x0020_1">
  <metadata id="CorelCorpID_0Corel-Layer"/>
  <path class="fil0" d="M3352 8951c-167,277 -74,4139 -76,4789 -2,796 -27,1643 -1,2434 13,390 178,636 417,804 229,161 510,305 742,441 509,297 1021,611 1525,906 591,347 4290,2620 4615,2643l-1 -8275c-771,-242 -4446,-2275 -5421,-2802l-1800 -940z"/>
  <path class="fil1" d="M15581 10258c93,271 150,1176 63,1457 -107,345 -587,512 -905,693 -243,139 -800,539 -1113,370 -349,-188 -89,-878 -247,-1315 -395,174 -817,441 -1208,639 -716,362 -459,296 -1266,604l0 8253c222,2 623,-283 804,-392l2258 -1356c1010,-608 1991,-1197 2990,-1804 603,-366 1126,-501 1134,-1304 12,-1122 55,-6805 -57,-7143 -427,171 -2012,1122 -2453,1298z"/>
  <path class="fil2" d="M3352 8951l1800 940c975,527 4650,2560 5421,2802l1 8275c-325,-23 -4024,-2296 -4615,-2643 -504,-295 -1016,-609 -1525,-906 -232,-136 -513,-280 -742,-441 -239,-168 -404,-414 -417,-804 -26,-791 -1,-1638 1,-2434 2,-650 -91,-4512 76,-4789zm12229 1307c441,-176 2026,-1127 2453,-1298 112,338 69,6021 57,7143 -8,803 -531,938 -1134,1304 -999,607 -1980,1196 -2990,1804l-2258 1356c-181,109 -582,394 -804,392l0 -8253c807,-308 550,-242 1266,-604 391,-198 813,-465 1208,-639 158,437 -102,1127 247,1315 313,169 870,-231 1113,-370 318,-181 798,-348 905,-693 87,-281 30,-1186 -63,-1457zm-12026 -1626c95,-155 380,-281 590,-388l1840 -976c349,-195 306,-119 641,72l5424 3088c323,187 1020,518 1153,752 -195,65 -437,223 -626,319 -201,101 -394,208 -586,317 -1289,732 -1235,722 -2533,-12l-2380 -1270c-405,-219 -775,-409 -1174,-631 -356,-199 -2222,-1155 -2349,-1271zm11646 1632c165,233 140,491 140,800 -1,417 83,556 -235,740 -212,124 -1119,651 -1305,663 -11,-257 5,-516 -8,-774 -15,-287 -86,-364 -169,-595 -424,-541 -956,-713 -1669,-1132 -594,-349 -1184,-660 -1773,-1007 -590,-347 -1194,-658 -1774,-1006l-1764 -1024c135,-127 876,-479 1108,-604 444,-239 269,-195 1096,251 1386,746 2961,1691 4309,2397 353,185 735,397 1072,596 341,202 825,388 972,695zm-6732 -4308c132,-131 933,-506 1164,-634 339,-189 850,-544 1321,-437 292,67 902,441 1184,591l4617 2506c241,134 975,471 1085,674l-2431 1299c-421,-363 -271,-268 -825,-567 -1466,-791 -2939,-1667 -4391,-2454l-1724 -978zm-5534 3267l0 7019c0,773 642,1067 1071,1326l6011 3580c477,288 955,277 1429,-9l5920 -3566c169,-101 340,-190 496,-303 291,-211 570,-549 570,-1028l0 -6985c0,-835 -614,-1124 -1239,-1435l-2791 -1519c-175,-90 -313,-175 -498,-265l-1263 -683c-503,-251 -1373,-858 -1888,-858 -535,0 -1353,564 -1876,834l-2039 1088c-100,56 -174,87 -278,139l-2784 1490c-357,216 -841,512 -841,1175z"/>
  <path class="fil3" d="M3555 8632c127,116 1993,1072 2349,1271 399,222 769,412 1174,631l2380 1270c1298,734 1244,744 2533,12 192,-109 385,-216 586,-317 189,-96 431,-254 626,-319 -133,-234 -830,-565 -1153,-752l-5424 -3088c-335,-191 -292,-267 -641,-72l-1840 976c-210,107 -495,233 -590,388z"/>
  <path class="fil0" d="M8469 5956l1724 978c1452,787 2925,1663 4391,2454 554,299 404,204 825,567l2431 -1299c-110,-203 -844,-540 -1085,-674l-4617 -2506c-282,-150 -892,-524 -1184,-591 -471,-107 -982,248 -1321,437 -231,128 -1032,503 -1164,634z"/>
  <path class="fil4" d="M13624 11098c237,-94 555,-280 783,-409 266,-150 522,-346 794,-425 -147,-307 -631,-493 -972,-695 -337,-199 -719,-411 -1072,-596 -1348,-706 -2923,-1651 -4309,-2397 -827,-446 -652,-490 -1096,-251 -232,125 -973,477 -1108,604l1764 1024c580,348 1184,659 1774,1006 589,347 1179,658 1773,1007 713,419 1245,591 1669,1132z"/>
  <path class="fil5" d="M13624 11098c83,231 154,308 169,595 13,258 -3,517 8,774 186,-12 1093,-539 1305,-663 318,-184 234,-323 235,-740 0,-309 25,-567 -140,-800 -272,79 -528,275 -794,425 -228,129 -546,315 -783,409z"/>
 </g>
</svg>
