<?xml version="1.0" encoding="UTF-8"?>
<!DOCTYPE svg PUBLIC "-//W3C//DTD SVG 1.1//EN" "http://www.w3.org/Graphics/SVG/1.1/DTD/svg11.dtd">
<!-- Creator: CorelDRAW X7 -->
<svg xmlns="http://www.w3.org/2000/svg" xml:space="preserve" width="141.492mm" height="127.794mm" version="1.1" style="shape-rendering:geometricPrecision; text-rendering:geometricPrecision; image-rendering:optimizeQuality; fill-rule:evenodd; clip-rule:evenodd"
viewBox="0 0 14149 12779"
 xmlns:xlink="http://www.w3.org/1999/xlink">
 <defs>
  <style type="text/css">
   <![CDATA[
    .fil1 {fill:#D0D4DA}
    .fil3 {fill:#D6CEF9}
    .fil2 {fill:#DFE3E8}
    .fil0 {fill:#FEFEFE}
   ]]>
  </style>
 </defs>
 <g id="Layer_x0020_1">
  <metadata id="CorelCorpID_0Corel-Layer"/>
  <g id="_2297281561440">
   <path class="fil0" d="M3808 7804c436,-268 820,-619 1271,-938 1668,-1180 7703,-5979 8743,-6591l-4100 4489c-180,211 -302,386 -488,580l-3556 3893 1624 1156 3239 2367 2628 -9343c200,-733 788,-2507 833,-3166l-81 -127 -13921 4858 3808 2822z"/>
   <path class="fil1" d="M3808 7804l747 4975 138 -164c-38,-75 -49,-22 -29,-224l182 -611c192,-632 591,-2214 832,-2543l3556 -3893c186,-194 308,-369 488,-580l4100 -4489c-1040,612 -7075,5411 -8743,6591 -451,319 -835,670 -1271,938z"/>
   <path class="fil2" d="M4693 12615c476,-379 796,-660 1249,-1158 208,-228 420,-386 652,-592 223,-199 348,-432 708,-472l-1624 -1156c-241,329 -640,1911 -832,2543l-182 611c-20,202 -9,149 29,224z"/>
   <path class="fil3" d="M14002 251l147 -251c-442,53 -64,-21 -228,124l81 127z"/>
  </g>
 </g>
</svg>
