<?xml version="1.0" encoding="UTF-8"?>
<!DOCTYPE svg PUBLIC "-//W3C//DTD SVG 1.1//EN" "http://www.w3.org/Graphics/SVG/1.1/DTD/svg11.dtd">
<!-- Creator: CorelDRAW X7 -->
<svg xmlns="http://www.w3.org/2000/svg" xml:space="preserve" width="636.048mm" height="106.721mm" version="1.1" style="shape-rendering:geometricPrecision; text-rendering:geometricPrecision; image-rendering:optimizeQuality; fill-rule:evenodd; clip-rule:evenodd"
viewBox="0 0 63605 10672"
 xmlns:xlink="http://www.w3.org/1999/xlink">
 <defs>
  <style type="text/css">
   <![CDATA[
    .fil0 {fill:#FEFEFE}
    .fil2 {fill:#FEFEFE;fill-rule:nonzero}
    .fil1 {fill:url(#id4)}
   ]]>
  </style>
    <mask id="id0">
  <linearGradient id="id1" gradientUnits="userSpaceOnUse" x1="7197.21" y1="7659.95" x2="3422.85" y2="2976.97">
   <stop offset="0" style="stop-opacity:1; stop-color:white"/>
   <stop offset="1" style="stop-opacity:0; stop-color:white"/>
  </linearGradient>
     <rect style="fill:url(#id1)" x="213" y="212" width="10193" height="10214"/>
    </mask>
    <mask id="id2">
  <linearGradient id="id3" gradientUnits="userSpaceOnUse" x1="4575.9" y1="4638.85" x2="2191.26" y2="451.49">
   <stop offset="0" style="stop-opacity:1; stop-color:white"/>
   <stop offset="1" style="stop-opacity:0; stop-color:white"/>
  </linearGradient>
     <rect style="fill:url(#id3)" x="-10" y="-10" width="6787" height="5110"/>
    </mask>
  <linearGradient id="id4" gradientUnits="userSpaceOnUse" x1="6398.23" y1="6498.22" x2="8211.45" y2="9747.25">
   <stop offset="0" style="stop-opacity:1; stop-color:#FEFEFE"/>
   <stop offset="1" style="stop-opacity:1; stop-color:#FEFEFE"/>
  </linearGradient>
 </defs>
 <g id="Layer_x0020_1">
  <metadata id="CorelCorpID_0Corel-Layer"/>
  <g id="_2535233033792">
   <path class="fil0" style="mask:url(#id0)" d="M7027 4872l3370 1714 -4113 -1065c12,-61 18,-124 18,-188 0,-424 -276,-784 -659,-909l1121 -4202 -106 3963c171,195 299,429 369,687zm-3095 5543l190 -3838c-213,-210 -372,-473 -456,-768l-3443 -1763 4184 1097c-13,61 -19,125 -19,190 0,425 276,784 658,910l-1114 4172z"/>
   <path class="fil1" d="M10620 6700l70 35 -4191 -94c-195,172 -428,301 -686,373l-1893 3658 1178 -4414c79,21 162,32 247,32 446,0 820,-304 927,-717l4348 1127z"/>
   <path class="fil0" style="mask:url(#id2)" d="M0 3931l4096 185c216,-221 489,-385 795,-467l1876 -3649 -1175 4408c-79,-21 -162,-32 -247,-32 -445,0 -819,303 -926,714l-4419 -1159z"/>
   <polygon class="fil2" points="13761,3554 14891,5032 14949,5141 15006,5032 16136,3554 16665,3554 15224,5452 16665,7328 16136,7328 15006,5858 14949,5756 14891,5858 13761,7328 13232,7328 14673,5452 13232,3554 "/>
   <path id="1" class="fil2" d="M16897 5430c0,-265 46,-516 137,-753 92,-237 221,-443 388,-619 166,-176 366,-315 597,-417 232,-101 488,-152 768,-152 357,0 669,81 934,243 266,162 466,380 602,655l-478 152c-107,-193 -255,-344 -446,-452 -191,-109 -402,-163 -634,-163 -193,0 -373,38 -539,116 -167,77 -312,182 -435,315 -123,133 -219,291 -289,474 -70,184 -105,384 -105,601 0,213 36,413 108,601 73,189 172,352 297,489 126,138 272,247 438,326 167,80 344,120 533,120 120,0 240,-17 358,-51 118,-34 228,-81 330,-141 101,-61 188,-129 260,-207 73,-77 124,-159 153,-246l485 145c-53,135 -131,260 -232,373 -101,113 -221,212 -358,297 -138,84 -290,150 -457,196 -166,45 -339,68 -518,68 -275,0 -528,-52 -760,-155 -232,-104 -432,-247 -601,-428 -169,-181 -301,-390 -395,-626 -94,-237 -141,-490 -141,-761z"/>
   <path id="2" class="fil2" d="M22705 7400c-275,0 -526,-52 -753,-155 -227,-104 -424,-245 -590,-424 -167,-179 -296,-386 -388,-623 -91,-237 -137,-485 -137,-746 0,-266 47,-517 141,-753 94,-237 225,-444 391,-623 167,-179 363,-321 590,-427 227,-107 476,-160 746,-160 271,0 521,53 750,160 229,106 427,248 594,427 167,179 297,386 391,623 94,236 141,487 141,753 0,261 -46,509 -137,746 -92,237 -221,444 -388,623 -166,179 -364,320 -594,424 -229,103 -481,155 -757,155zm-1368 -1941c0,213 36,409 108,591 73,181 170,340 294,478 123,137 267,245 434,322 167,77 344,116 532,116 189,0 366,-40 533,-120 166,-79 312,-188 438,-326 125,-137 224,-298 297,-481 72,-184 109,-382 109,-594 0,-208 -37,-405 -109,-590 -73,-186 -172,-348 -297,-486 -126,-137 -272,-246 -438,-326 -167,-79 -344,-119 -533,-119 -188,0 -364,40 -528,119 -164,80 -309,190 -435,330 -125,140 -224,303 -297,489 -72,186 -108,385 -108,597z"/>
   <path id="3" class="fil2" d="M31020 7328l-492 0 0 -2108c0,-439 -71,-763 -211,-970 -140,-208 -347,-312 -622,-312 -145,0 -282,27 -410,80 -128,53 -246,128 -355,225 -108,96 -204,211 -286,344 -82,132 -144,278 -188,438l0 2303 -492 0 0 -2108c0,-449 -68,-775 -203,-977 -135,-203 -343,-305 -623,-305 -285,0 -538,99 -761,297 -222,198 -381,459 -478,782l0 2311 -492 0 0 -3774 449 0 0 855c154,-290 357,-515 608,-677 251,-162 529,-243 833,-243 319,0 574,90 764,268 191,179 308,413 352,703 352,-647 837,-971 1455,-971 213,0 393,39 540,116 147,77 266,187 355,330 89,142 154,314 195,514 41,200 62,424 62,670l0 2209z"/>
   <path id="4" class="fil2" d="M33989 7400c-318,0 -599,-81 -843,-242 -244,-162 -441,-366 -591,-612l0 2325 -492 0 0 -5317 442 0 0 732c154,-237 355,-429 601,-576 246,-147 514,-221 804,-221 261,0 500,55 717,163 217,109 405,254 565,435 159,181 283,390 373,626 89,237 134,481 134,732 0,265 -41,516 -123,753 -82,237 -200,444 -352,623 -152,179 -333,320 -543,424 -210,103 -440,155 -692,155zm-137 -434c203,0 387,-44 554,-131 167,-87 309,-201 427,-344 119,-142 209,-304 272,-485 63,-181 94,-368 94,-561 0,-203 -36,-396 -109,-580 -72,-183 -171,-345 -297,-485 -125,-140 -274,-251 -445,-333 -171,-82 -356,-123 -554,-123 -126,0 -257,25 -395,76 -137,51 -265,118 -384,203 -118,84 -219,183 -304,297 -84,113 -136,233 -156,358l0 1159c58,135 132,261 221,377 90,115 191,216 305,300 113,85 235,151 365,199 131,49 266,73 406,73z"/>
   <path id="5" class="fil2" d="M37480 7400c-178,0 -344,-30 -496,-90 -152,-61 -285,-144 -398,-250 -113,-106 -202,-231 -264,-373 -63,-143 -95,-296 -95,-460 0,-164 39,-316 116,-456 78,-140 186,-261 326,-362 140,-102 307,-180 500,-236 193,-55 406,-83 637,-83 194,0 389,17 587,51 198,33 374,82 529,144l0 -340c0,-333 -94,-597 -283,-793 -188,-196 -449,-293 -782,-293 -193,0 -391,38 -594,116 -203,77 -408,188 -615,333l-174 -326c487,-329 961,-493 1419,-493 473,0 845,133 1116,399 270,265 405,632 405,1100l0 1703c0,135 61,202 181,202l0 435c-82,14 -145,22 -188,22 -126,0 -223,-32 -293,-95 -70,-62 -108,-149 -113,-260l-14 -297c-174,227 -392,401 -656,521 -263,121 -546,181 -851,181zm116 -376c256,0 492,-49 707,-145 214,-97 377,-225 488,-384 44,-43 76,-91 98,-141 22,-51 33,-98 33,-141l0 -616c-164,-63 -335,-111 -511,-145 -176,-34 -356,-51 -539,-51 -348,0 -631,73 -848,218 -217,144 -326,335 -326,572 0,116 23,224 69,326 46,101 109,189 188,264 80,75 175,134 286,178 112,43 230,65 355,65z"/>
   <path id="6" class="fil2" d="M41732 7400c-295,0 -582,-48 -862,-145 -280,-96 -521,-236 -724,-420l224 -333c213,174 429,304 649,391 219,87 455,131 706,131 304,0 546,-62 728,-185 181,-123 271,-298 271,-525 0,-106 -24,-194 -72,-264 -49,-70 -120,-132 -214,-185 -94,-53 -212,-100 -355,-141 -142,-41 -308,-84 -496,-127 -217,-53 -406,-106 -565,-159 -159,-54 -291,-114 -395,-182 -103,-67 -181,-150 -231,-249 -51,-99 -76,-224 -76,-373 0,-189 37,-355 112,-500 75,-145 176,-264 304,-359 128,-94 278,-165 449,-213 172,-49 354,-73 547,-73 290,0 553,47 789,141 237,95 428,219 573,373l-239 290c-140,-145 -311,-253 -511,-326 -200,-72 -409,-108 -627,-108 -130,0 -251,13 -362,39 -111,27 -209,69 -293,127 -85,58 -151,132 -199,221 -48,89 -73,194 -73,315 0,102 17,184 51,246 34,63 89,118 167,163 77,46 175,87 293,124 118,36 262,73 431,112 241,58 454,116 637,174 184,58 337,125 460,202 123,78 216,172 279,283 63,111 94,246 94,405 0,348 -133,623 -398,826 -266,203 -623,304 -1072,304z"/>
   <path id="7" class="fil2" d="M45259 7400c-294,0 -582,-48 -862,-145 -280,-96 -521,-236 -724,-420l224 -333c213,174 429,304 649,391 219,87 455,131 706,131 304,0 547,-62 728,-185 181,-123 271,-298 271,-525 0,-106 -24,-194 -72,-264 -48,-70 -120,-132 -214,-185 -94,-53 -212,-100 -355,-141 -142,-41 -307,-84 -496,-127 -217,-53 -405,-106 -565,-159 -159,-54 -291,-114 -394,-182 -104,-67 -181,-150 -232,-249 -51,-99 -76,-224 -76,-373 0,-189 37,-355 112,-500 75,-145 176,-264 304,-359 128,-94 278,-165 449,-213 172,-49 354,-73 547,-73 290,0 553,47 790,141 236,95 427,219 572,373l-239 290c-140,-145 -311,-253 -511,-326 -200,-72 -409,-108 -626,-108 -131,0 -251,13 -363,39 -111,27 -208,69 -293,127 -84,58 -151,132 -199,221 -48,89 -72,194 -72,315 0,102 16,184 50,246 34,63 90,118 167,163 77,46 175,87 293,124 118,36 262,73 431,112 242,58 454,116 637,174 184,58 337,125 460,202 124,78 216,172 279,283 63,111 94,246 94,405 0,348 -132,623 -398,826 -266,203 -623,304 -1072,304z"/>
   <polygon id="8" class="fil2" points="49482,7328 49482,2186 52857,2186 52857,2635 49989,2635 49989,4525 52408,4525 52408,4945 49989,4945 49989,7328 "/>
   <polygon id="9" class="fil2" points="58303,7328 58303,3105 56427,6372 56130,6372 54255,3105 54255,7328 53748,7328 53748,2186 54269,2186 56275,5706 58296,2186 58810,2186 58810,7328 "/>
   <path id="10" class="fil2" d="M63105 3149c-145,-164 -338,-297 -579,-398 -242,-102 -517,-153 -826,-153 -454,0 -785,86 -992,258 -208,171 -312,404 -312,698 0,155 28,282 84,381 55,99 141,184 257,257 116,72 264,135 445,188 181,53 395,106 641,159 275,58 523,124 742,196 220,72 407,163 562,272 154,108 273,240 355,394 82,155 123,348 123,580 0,236 -46,442 -138,615 -92,174 -219,319 -384,435 -164,116 -359,202 -586,257 -227,56 -476,83 -746,83 -797,0 -1485,-248 -2064,-746l253 -412c92,96 202,188 330,275 128,87 270,163 427,228 157,65 325,116 503,152 179,36 367,54 565,54 411,0 730,-73 960,-221 229,-147 344,-370 344,-670 0,-159 -33,-293 -98,-402 -65,-108 -163,-202 -293,-282 -131,-80 -292,-148 -486,-206 -193,-58 -417,-116 -673,-174 -270,-63 -507,-128 -710,-196 -203,-67 -374,-152 -514,-253 -140,-102 -245,-224 -315,-366 -70,-142 -105,-318 -105,-525 0,-237 45,-448 134,-634 89,-186 216,-340 380,-463 164,-124 357,-218 579,-283 223,-65 469,-98 739,-98 343,0 648,52 916,156 268,104 511,250 728,438l-246 406z"/>
  </g>
 </g>
</svg>
