<?xml version="1.0" encoding="UTF-8"?>
<!DOCTYPE svg PUBLIC "-//W3C//DTD SVG 1.1//EN" "http://www.w3.org/Graphics/SVG/1.1/DTD/svg11.dtd">
<!-- Creator: CorelDRAW X7 -->
<svg xmlns="http://www.w3.org/2000/svg" xml:space="preserve" width="636.048mm" height="106.721mm" version="1.1" style="shape-rendering:geometricPrecision; text-rendering:geometricPrecision; image-rendering:optimizeQuality; fill-rule:evenodd; clip-rule:evenodd"
viewBox="0 0 63605 10672"
 xmlns:xlink="http://www.w3.org/1999/xlink">
 <defs>
  <style type="text/css">
   <![CDATA[
    .fil1 {fill:#00223D}
    .fil0 {fill:#00345E}
    .fil2 {fill:#024D8A}
    .fil3 {fill:#414142;fill-rule:nonzero}
   ]]>
  </style>
 </defs>
 <g id="Layer_x0020_1">
  <metadata id="CorelCorpID_0Corel-Layer"/>
  <g id="_2535241920592">
   <path class="fil0" d="M7028 4875l3662 1863 -4191 -94c-194,172 -428,301 -685,373l-1894 3658 202 -4096c-212,-209 -372,-472 -455,-767l-3667 -1878 4097 184c215,-220 488,-384 794,-466l1879 -3655 -112 4191c171,195 299,429 370,687zm-1683 -496c529,0 957,428 957,957 0,529 -428,957 -957,957 -528,0 -957,-428 -957,-957 0,-529 429,-957 957,-957z"/>
   <path class="fil1" d="M10620 6703l70 35 -4191 -94c-194,172 -428,301 -685,373l-1894 3658 1178 -4414c79,21 162,32 247,32 446,0 821,-304 927,-717l4348 1127z"/>
   <path class="fil2" d="M0 3934l4097 184c215,-220 488,-384 794,-466l1877 -3649 -1176 4408c-79,-21 -161,-32 -247,-32 -444,0 -818,303 -926,714l-4419 -1159z"/>
   <polygon class="fil3" points="13761,3557 14891,5035 14949,5143 15007,5035 16137,3557 16665,3557 15224,5455 16665,7331 16137,7331 15007,5860 14949,5759 14891,5860 13761,7331 13232,7331 14674,5455 13232,3557 "/>
   <path id="1" class="fil3" d="M16897 5433c0,-265 46,-517 138,-753 91,-237 221,-443 387,-619 167,-177 366,-315 598,-417 231,-101 487,-152 767,-152 358,0 669,81 935,243 265,161 466,380 601,655l-478 152c-106,-193 -255,-344 -446,-452 -190,-109 -402,-163 -633,-163 -193,0 -373,38 -540,116 -167,77 -311,182 -434,315 -124,132 -220,291 -290,474 -70,183 -105,384 -105,601 0,213 36,413 108,601 73,189 172,352 297,489 126,138 272,246 439,326 166,80 344,120 532,120 121,0 240,-17 358,-51 119,-34 229,-81 330,-141 101,-61 188,-130 261,-207 72,-77 123,-159 152,-246l485 145c-53,135 -130,259 -232,373 -101,113 -221,212 -358,297 -138,84 -290,149 -457,195 -166,46 -339,69 -517,69 -276,0 -529,-52 -761,-156 -232,-103 -432,-246 -601,-427 -169,-181 -301,-390 -395,-626 -94,-237 -141,-490 -141,-761z"/>
   <path id="2" class="fil3" d="M22706 7403c-276,0 -527,-52 -754,-156 -227,-103 -423,-245 -590,-423 -166,-179 -296,-387 -387,-623 -92,-237 -138,-485 -138,-746 0,-266 47,-517 141,-753 94,-237 225,-445 391,-623 167,-179 364,-321 591,-428 227,-106 475,-159 746,-159 270,0 520,53 749,159 230,107 428,249 594,428 167,178 297,386 391,623 94,236 141,487 141,753 0,261 -45,509 -137,746 -92,236 -221,444 -388,623 -166,178 -364,320 -594,423 -229,104 -481,156 -756,156zm-1369 -1941c0,213 36,409 108,590 73,181 171,341 294,478 123,138 268,245 434,323 167,77 344,116 533,116 188,0 365,-40 532,-120 167,-80 313,-188 438,-326 126,-137 225,-298 297,-482 72,-183 109,-381 109,-593 0,-208 -37,-405 -109,-591 -72,-186 -171,-347 -297,-485 -125,-138 -271,-246 -438,-326 -167,-80 -344,-119 -532,-119 -189,0 -365,39 -529,119 -164,80 -309,190 -435,330 -125,140 -224,303 -297,489 -72,185 -108,385 -108,597z"/>
   <path id="3" class="fil3" d="M31020 7331l-492 0 0 -2108c0,-439 -70,-763 -210,-970 -140,-208 -348,-312 -623,-312 -145,0 -282,27 -409,80 -128,53 -247,128 -355,224 -109,97 -204,212 -286,344 -83,133 -145,279 -189,439l0 2303 -492 0 0 -2108c0,-449 -68,-775 -203,-978 -135,-202 -343,-304 -623,-304 -285,0 -538,99 -760,297 -223,198 -382,459 -478,782l0 2311 -493 0 0 -3774 449 0 0 855c155,-290 357,-516 609,-677 251,-162 528,-243 832,-243 319,0 574,89 765,268 190,179 307,413 351,703 352,-647 837,-971 1456,-971 212,0 392,39 539,116 147,77 266,187 355,330 89,142 154,313 196,514 41,200 61,423 61,670l0 2209z"/>
   <path id="4" class="fil3" d="M33990 7403c-319,0 -600,-81 -844,-243 -244,-161 -441,-365 -590,-612l0 2325 -493 0 0 -5316 442 0 0 732c154,-237 355,-429 601,-576 246,-147 514,-221 804,-221 261,0 500,54 717,163 217,109 405,254 565,435 159,181 283,390 373,626 89,237 134,481 134,732 0,265 -41,516 -123,753 -82,236 -199,444 -352,623 -152,178 -333,320 -543,423 -210,104 -440,156 -691,156zm-138 -434c203,0 387,-44 554,-131 167,-87 309,-201 427,-344 119,-142 209,-304 272,-485 63,-181 94,-368 94,-561 0,-203 -36,-396 -109,-580 -72,-183 -171,-345 -297,-485 -125,-140 -274,-251 -445,-333 -171,-82 -356,-123 -554,-123 -126,0 -257,25 -395,76 -137,50 -265,118 -384,203 -118,84 -219,183 -304,296 -84,114 -136,233 -155,359l0 1159c57,135 131,261 220,376 90,116 191,216 305,301 113,84 235,151 365,199 131,48 266,73 406,73z"/>
   <path id="5" class="fil3" d="M37480 7403c-178,0 -344,-30 -496,-90 -152,-61 -285,-144 -398,-250 -113,-107 -202,-231 -264,-373 -63,-143 -94,-296 -94,-460 0,-164 38,-316 115,-456 78,-141 186,-261 326,-363 140,-101 307,-179 500,-235 193,-56 406,-83 637,-83 194,0 389,17 587,50 198,34 374,82 529,145l0 -340c0,-333 -94,-598 -283,-793 -188,-196 -449,-294 -782,-294 -193,0 -391,39 -594,116 -203,78 -408,189 -615,334l-174 -326c487,-329 961,-493 1419,-493 473,0 845,133 1116,398 270,266 405,633 405,1101l0 1702c0,136 61,203 181,203l0 435c-82,14 -145,21 -188,21 -126,0 -223,-31 -293,-94 -70,-63 -108,-149 -113,-260l-14 -297c-174,227 -392,400 -656,521 -263,121 -546,181 -851,181zm116 -377c256,0 492,-48 707,-144 214,-97 377,-225 488,-384 44,-44 76,-91 98,-141 22,-51 33,-98 33,-142l0 -615c-164,-63 -335,-111 -511,-145 -176,-34 -356,-51 -539,-51 -348,0 -631,73 -848,217 -217,145 -326,336 -326,573 0,115 23,224 69,326 46,101 109,189 188,264 80,75 175,134 286,177 112,44 230,65 355,65z"/>
   <path id="6" class="fil3" d="M41732 7403c-295,0 -582,-48 -862,-145 -280,-96 -521,-236 -724,-420l224 -333c213,174 429,304 648,391 220,87 456,130 707,130 304,0 546,-61 728,-184 181,-123 271,-298 271,-525 0,-107 -24,-195 -72,-265 -49,-70 -120,-131 -214,-184 -94,-53 -212,-101 -355,-142 -142,-41 -308,-83 -496,-126 -217,-53 -406,-107 -565,-160 -159,-53 -291,-113 -395,-181 -103,-67 -181,-151 -231,-250 -51,-99 -76,-223 -76,-373 0,-188 37,-354 112,-499 75,-145 176,-265 304,-359 128,-94 278,-165 449,-213 171,-49 354,-73 547,-73 290,0 553,47 789,141 237,94 428,219 572,373l-239 290c-140,-145 -310,-253 -510,-326 -201,-72 -409,-109 -627,-109 -130,0 -251,14 -362,40 -111,27 -209,69 -293,127 -85,58 -151,132 -199,221 -49,89 -73,194 -73,315 0,101 17,183 51,246 34,63 89,117 167,163 77,46 175,87 293,123 118,37 262,74 431,113 241,58 454,115 637,173 184,58 337,126 460,203 123,77 216,172 279,283 63,111 94,246 94,405 0,348 -133,623 -398,826 -266,203 -623,304 -1072,304z"/>
   <path id="7" class="fil3" d="M45259 7403c-295,0 -582,-48 -862,-145 -280,-96 -521,-236 -724,-420l224 -333c213,174 429,304 649,391 219,87 455,130 706,130 304,0 547,-61 728,-184 181,-123 271,-298 271,-525 0,-107 -24,-195 -72,-265 -48,-70 -120,-131 -214,-184 -94,-53 -212,-101 -355,-142 -142,-41 -308,-83 -496,-126 -217,-53 -405,-107 -565,-160 -159,-53 -291,-113 -394,-181 -104,-67 -182,-151 -232,-250 -51,-99 -76,-223 -76,-373 0,-188 37,-354 112,-499 75,-145 176,-265 304,-359 128,-94 278,-165 449,-213 172,-49 354,-73 547,-73 290,0 553,47 789,141 237,94 428,219 573,373l-239 290c-140,-145 -311,-253 -511,-326 -200,-72 -409,-109 -626,-109 -131,0 -252,14 -363,40 -111,27 -208,69 -293,127 -84,58 -151,132 -199,221 -48,89 -73,194 -73,315 0,101 17,183 51,246 34,63 90,117 167,163 77,46 175,87 293,123 118,37 262,74 431,113 241,58 454,115 637,173 184,58 337,126 460,203 123,77 216,172 279,283 63,111 94,246 94,405 0,348 -133,623 -398,826 -266,203 -623,304 -1072,304z"/>
   <polygon id="8" class="fil3" points="49481,7331 49481,2188 52856,2188 52856,2637 49988,2637 49988,4528 52407,4528 52407,4948 49988,4948 49988,7331 "/>
   <polygon id="9" class="fil3" points="58303,7331 58303,3108 56427,6375 56130,6375 54254,3108 54254,7331 53747,7331 53747,2188 54269,2188 56275,5708 58296,2188 58810,2188 58810,7331 "/>
   <path id="10" class="fil3" d="M63105 3152c-145,-164 -338,-297 -580,-399 -241,-101 -516,-152 -825,-152 -454,0 -785,86 -993,257 -207,172 -311,405 -311,699 0,155 28,282 83,381 56,99 142,184 257,257 116,72 265,135 446,188 181,53 395,106 641,159 275,58 522,123 742,196 220,72 407,163 561,271 155,109 273,241 355,395 82,155 123,348 123,580 0,236 -45,441 -137,615 -92,174 -220,319 -384,435 -164,116 -360,201 -587,257 -227,55 -475,83 -746,83 -796,0 -1484,-249 -2064,-746l254 -413c91,97 201,189 329,276 128,86 271,162 428,228 157,65 324,116 503,152 179,36 367,54 565,54 410,0 730,-74 959,-221 230,-147 345,-370 345,-670 0,-159 -33,-293 -98,-402 -65,-108 -163,-203 -294,-282 -130,-80 -292,-149 -485,-207 -193,-58 -417,-115 -673,-173 -271,-63 -507,-128 -710,-196 -203,-68 -374,-152 -514,-253 -140,-102 -245,-224 -315,-366 -70,-143 -105,-318 -105,-525 0,-237 44,-448 134,-634 89,-186 216,-340 380,-464 164,-123 357,-217 579,-282 222,-65 469,-98 739,-98 343,0 648,52 916,156 268,104 511,250 728,438l-246 406z"/>
  </g>
 </g>
</svg>
